<svg width="147" height="46" viewBox="0 0 147 46" fill="none" xmlns="http://www.w3.org/2000/svg">
<path d="M18.625 8.625C18.625 10.7623 17.6841 12.8238 15.9893 14.3525C14.2928 15.8827 11.9817 16.75 9.5625 16.75C7.14328 16.75 4.83221 15.8827 3.13568 14.3525C1.44085 12.8238 0.5 10.7623 0.5 8.625C0.5 6.48774 1.44085 4.42615 3.13568 2.89749C4.83221 1.36729 7.14328 0.5 9.5625 0.5C11.9817 0.5 14.2928 1.36729 15.9893 2.89749C17.6841 4.42615 18.625 6.48774 18.625 8.625Z" fill="#5A189A" stroke="#240046"/>
<path d="M28.6875 16.75C26.2683 16.75 23.9572 15.8827 22.2607 14.3525C20.5659 12.8238 19.625 10.7623 19.625 8.625C19.625 6.48774 20.5659 4.42615 22.2607 2.89749C23.9572 1.36729 26.2683 0.5 28.6875 0.5C31.1067 0.5 33.4178 1.36729 35.1143 2.89749C36.8092 4.42615 37.75 6.48774 37.75 8.625C37.75 10.7623 36.8092 12.8238 35.1143 14.3525C33.4178 15.8827 31.1067 16.75 28.6875 16.75Z" fill="#5A189A" stroke="#240046"/>
<path d="M30.2812 17.75H30.2813C31.7202 17.7498 33.1033 18.2218 34.1738 19.068C35.2432 19.9134 35.9245 21.071 36.1073 22.3192L36.1993 22.9468L36.7881 22.7109L46.7012 18.7376L46.7016 18.7374C47.1155 18.5711 47.5711 18.5 48.0263 18.5322C48.4815 18.5643 48.9176 18.6985 49.295 18.9194L49.5476 18.4879L49.295 18.9194C49.6723 19.1402 49.9766 19.4391 50.1849 19.7848C50.3929 20.1301 50.4998 20.5128 50.5 20.8986V42.3511C50.4996 42.7367 50.3927 43.119 50.1848 43.464C49.9766 43.8095 49.6726 44.1082 49.2958 44.3289C48.9187 44.5497 48.483 44.684 48.0282 44.7164C47.5734 44.7489 47.1181 44.6781 46.7044 44.5124L46.5184 44.9765L46.7043 44.5124L36.788 40.5391L36.1993 40.3032L36.1073 40.9308C35.9245 42.179 35.2432 43.3366 34.1738 44.182C33.1033 45.0282 31.7202 45.5001 30.2813 45.5H30.2812H6.375C4.80116 45.5 3.30084 44.9356 2.20208 43.9446C1.10503 42.9551 0.5 41.6248 0.5 40.25L0.5 23C0.5 21.6252 1.10503 20.2949 2.20208 19.3054C3.30084 18.3144 4.80116 17.75 6.375 17.75H28.6875H30.2812Z" fill="#5A189A" stroke="#240046"/>
<path d="M25.6009 32.8722L17.15 37.7863C16.4328 38.2029 15.5125 37.6984 15.5125 36.8586V27.0303C15.5125 26.1918 16.4315 25.686 17.15 26.1039L25.6009 31.0181C25.764 31.1114 25.8996 31.2463 25.994 31.4091C26.0883 31.5719 26.138 31.7569 26.138 31.9451C26.138 32.1334 26.0883 32.3183 25.994 32.4811C25.8996 32.6439 25.764 32.7788 25.6009 32.8722Z" fill="white"/>
<path d="M61.2 41V23.5H70.325V26.5H64.625V30.875H69.575V33.775H64.625V41H61.2ZM76.9145 35.225H74.2395C73.8895 35.6583 73.7145 36.2 73.7145 36.85C73.7145 37.5 73.8978 38.0083 74.2645 38.375H76.9145V35.225ZM71.5395 28.225H77.7395C78.7395 28.825 79.3978 29.5167 79.7145 30.3C80.0311 31.0667 80.1895 32.1167 80.1895 33.45V37.2C80.1895 38.5833 80.2228 39.85 80.2895 41H77.4395L76.9895 40.1C76.3395 40.7 75.4228 41 74.2395 41H72.6645C71.2478 40.0667 70.5395 38.725 70.5395 36.975C70.5395 35.2083 71.2645 33.8167 72.7145 32.8H75.0645C75.7145 32.8 76.3228 33 76.8895 33.4V32.15C76.8895 31.5 76.6061 31.0667 76.0395 30.85H71.5395V28.225ZM83.5896 28.225H89.1146V30.85H85.2146L87.5896 34.375C88.6563 35.8917 89.248 36.9333 89.3646 37.5C89.4313 37.7667 89.4646 38.0417 89.4646 38.325C89.4646 39.5083 89.023 40.4 88.1396 41H81.7646V38.375H86.3396L83.6646 34.45C83.548 34.2667 83.3646 34.0083 83.1146 33.675C82.8813 33.3417 82.698 33.075 82.5646 32.875C82.4313 32.6583 82.3396 32.5 82.2896 32.4C82.2396 32.3 82.173 32.175 82.0896 32.025C82.0063 31.8583 81.948 31.7167 81.9146 31.6C81.848 31.2833 81.8146 31.025 81.8146 30.825C81.8146 29.6083 82.4063 28.7417 83.5896 28.225ZM96.6107 30.85H94.7357C94.4857 31.15 94.2774 31.5667 94.1107 32.1C93.9607 32.6333 93.8857 33.15 93.8857 33.65H97.4607C97.4941 33.15 97.4274 32.6333 97.2607 32.1C97.0941 31.55 96.8774 31.1333 96.6107 30.85ZM100.011 38.375V41H93.6607C92.4941 40.2167 91.6691 39.25 91.1857 38.1C90.7191 36.9333 90.4857 35.7583 90.4857 34.575C90.4857 31.8417 91.5191 29.725 93.5857 28.225H97.6357C98.7524 29.0417 99.5107 29.9083 99.9107 30.825C100.311 31.7417 100.511 32.6667 100.511 33.6C100.511 34.5333 100.436 35.3333 100.286 36H94.0607C94.1107 36.3833 94.2524 36.825 94.4857 37.325C94.7357 37.8083 95.0024 38.1583 95.2857 38.375H100.011ZM105.138 26.5H101.363V23.5H112.313V26.5H108.538V41H105.138V26.5ZM117.063 41H114.438C113.704 40.0667 113.204 39.1333 112.938 38.2C112.671 37.2667 112.538 36.1 112.538 34.7V28.225H115.863V34.95C115.863 36.4667 116.163 37.6083 116.763 38.375H119.088V28.225H122.413V41H119.788L119.338 40.1C118.704 40.7 117.946 41 117.063 41ZM124.552 23.5H127.852V29.125C128.218 28.7917 128.56 28.5583 128.877 28.425C129.21 28.2917 129.702 28.225 130.352 28.225H132.352C133.052 28.9083 133.602 29.7917 134.002 30.875C134.402 31.9583 134.602 33.15 134.602 34.45C134.602 37.2333 133.768 39.4167 132.102 41H129.727C128.91 41 128.227 40.6917 127.677 40.075L127.227 41H124.552V23.5ZM127.877 38.375H130.277C130.893 37.325 131.202 36.05 131.202 34.55C131.202 33.05 130.885 31.8167 130.252 30.85H127.877V38.375ZM142.167 30.85H140.292C140.042 31.15 139.834 31.5667 139.667 32.1C139.517 32.6333 139.442 33.15 139.442 33.65H143.017C143.051 33.15 142.984 32.6333 142.817 32.1C142.651 31.55 142.434 31.1333 142.167 30.85ZM145.567 38.375V41H139.217C138.051 40.2167 137.226 39.25 136.742 38.1C136.276 36.9333 136.042 35.7583 136.042 34.575C136.042 31.8417 137.076 29.725 139.142 28.225H143.192C144.309 29.0417 145.067 29.9083 145.467 30.825C145.867 31.7417 146.067 32.6667 146.067 33.6C146.067 34.5333 145.992 35.3333 145.842 36H139.617C139.667 36.3833 139.809 36.825 140.042 37.325C140.292 37.8083 140.559 38.1583 140.842 38.375H145.567Z" fill="white"/>
</svg>
