<svg width="51" height="46" viewBox="0 0 51 46" fill="none" xmlns="http://www.w3.org/2000/svg">
<path d="M18.625 8.625C18.625 10.7623 17.6841 12.8238 15.9893 14.3525C14.2928 15.8827 11.9817 16.75 9.5625 16.75C7.14328 16.75 4.83221 15.8827 3.13568 14.3525C1.44085 12.8238 0.5 10.7623 0.5 8.625C0.5 6.48774 1.44085 4.42615 3.13568 2.89749C4.83221 1.36729 7.14328 0.5 9.5625 0.5C11.9817 0.5 14.2928 1.36729 15.9893 2.89749C17.6841 4.42615 18.625 6.48774 18.625 8.625Z" fill="#5A189A" stroke="#240046"/>
<path d="M28.6875 16.75C26.2683 16.75 23.9572 15.8827 22.2607 14.3525C20.5659 12.8238 19.625 10.7623 19.625 8.625C19.625 6.48774 20.5659 4.42615 22.2607 2.89749C23.9572 1.36729 26.2683 0.5 28.6875 0.5C31.1067 0.5 33.4178 1.36729 35.1143 2.89749C36.8092 4.42615 37.75 6.48774 37.75 8.625C37.75 10.7623 36.8092 12.8238 35.1143 14.3525C33.4178 15.8827 31.1067 16.75 28.6875 16.75Z" fill="#5A189A" stroke="#240046"/>
<path d="M30.2812 17.75H30.2813C31.7202 17.7498 33.1033 18.2218 34.1738 19.068C35.2432 19.9134 35.9245 21.071 36.1073 22.3192L36.1993 22.9468L36.7881 22.7109L46.7012 18.7376L46.7016 18.7374C47.1155 18.5711 47.5711 18.5 48.0263 18.5322C48.4815 18.5643 48.9176 18.6985 49.295 18.9194L49.5476 18.4879L49.295 18.9194C49.6723 19.1402 49.9766 19.4391 50.1849 19.7848C50.3929 20.1301 50.4998 20.5128 50.5 20.8986V42.3511C50.4996 42.7367 50.3927 43.119 50.1848 43.464C49.9766 43.8095 49.6726 44.1082 49.2958 44.3289C48.9187 44.5497 48.483 44.684 48.0282 44.7164C47.5734 44.7489 47.1181 44.6781 46.7044 44.5124L46.5184 44.9765L46.7043 44.5124L36.788 40.5391L36.1993 40.3032L36.1073 40.9308C35.9245 42.179 35.2432 43.3366 34.1738 44.182C33.1033 45.0282 31.7202 45.5001 30.2813 45.5H30.2812H6.375C4.80116 45.5 3.30084 44.9356 2.20208 43.9446C1.10503 42.9551 0.5 41.6248 0.5 40.25L0.5 23C0.5 21.6252 1.10503 20.2949 2.20208 19.3054C3.30084 18.3144 4.80116 17.75 6.375 17.75H28.6875H30.2812Z" fill="#5A189A" stroke="#240046"/>
<path d="M25.6009 32.8722L17.15 37.7863C16.4328 38.2029 15.5125 37.6984 15.5125 36.8586V27.0303C15.5125 26.1918 16.4315 25.686 17.15 26.1039L25.6009 31.0181C25.764 31.1114 25.8996 31.2463 25.994 31.4091C26.0883 31.5719 26.138 31.7569 26.138 31.9451C26.138 32.1334 26.0883 32.3183 25.994 32.4811C25.8996 32.6439 25.764 32.7788 25.6009 32.8722Z" fill="white"/>
</svg>
