<svg width="86" height="18" viewBox="0 0 86 18" fill="none" xmlns="http://www.w3.org/2000/svg">
<path d="M0.2 18V0.499999H9.325V3.5H3.625V7.875H8.575V10.775H3.625V18H0.2ZM15.9145 12.225H13.2395C12.8895 12.6583 12.7145 13.2 12.7145 13.85C12.7145 14.5 12.8978 15.0083 13.2645 15.375H15.9145V12.225ZM10.5395 5.225H16.7395C17.7395 5.825 18.3978 6.51667 18.7145 7.3C19.0311 8.06667 19.1895 9.11667 19.1895 10.45V14.2C19.1895 15.5833 19.2228 16.85 19.2895 18H16.4395L15.9895 17.1C15.3395 17.7 14.4228 18 13.2395 18H11.6645C10.2478 17.0667 9.53945 15.725 9.53945 13.975C9.53945 12.2083 10.2645 10.8167 11.7145 9.8H14.0645C14.7145 9.8 15.3228 10 15.8895 10.4V9.15C15.8895 8.5 15.6061 8.06667 15.0395 7.85H10.5395V5.225ZM22.5896 5.225H28.1146V7.85H24.2146L26.5896 11.375C27.6563 12.8917 28.248 13.9333 28.3646 14.5C28.4313 14.7667 28.4646 15.0417 28.4646 15.325C28.4646 16.5083 28.023 17.4 27.1396 18H20.7646V15.375H25.3396L22.6646 11.45C22.548 11.2667 22.3646 11.0083 22.1146 10.675C21.8813 10.3417 21.698 10.075 21.5646 9.875C21.4313 9.65833 21.3396 9.5 21.2896 9.4C21.2396 9.3 21.173 9.175 21.0896 9.025C21.0063 8.85833 20.948 8.71667 20.9146 8.6C20.848 8.28333 20.8146 8.025 20.8146 7.825C20.8146 6.60833 21.4063 5.74167 22.5896 5.225ZM35.6107 7.85H33.7357C33.4857 8.15 33.2774 8.56667 33.1107 9.1C32.9607 9.63333 32.8857 10.15 32.8857 10.65H36.4607C36.4941 10.15 36.4274 9.63333 36.2607 9.1C36.0941 8.55 35.8774 8.13333 35.6107 7.85ZM39.0107 15.375V18H32.6607C31.4941 17.2167 30.6691 16.25 30.1857 15.1C29.7191 13.9333 29.4857 12.7583 29.4857 11.575C29.4857 8.84167 30.5191 6.725 32.5857 5.225H36.6357C37.7524 6.04167 38.5107 6.90833 38.9107 7.825C39.3107 8.74167 39.5107 9.66667 39.5107 10.6C39.5107 11.5333 39.4357 12.3333 39.2857 13H33.0607C33.1107 13.3833 33.2524 13.825 33.4857 14.325C33.7357 14.8083 34.0024 15.1583 34.2857 15.375H39.0107ZM44.1383 3.5H40.3633V0.499999H51.3133V3.5H47.5383V18H44.1383V3.5ZM56.0625 18H53.4375C52.7042 17.0667 52.2042 16.1333 51.9375 15.2C51.6708 14.2667 51.5375 13.1 51.5375 11.7V5.225H54.8625V11.95C54.8625 13.4667 55.1625 14.6083 55.7625 15.375H58.0875V5.225H61.4125V18H58.7875L58.3375 17.1C57.7042 17.7 56.9458 18 56.0625 18ZM63.5516 0.499999H66.8516V6.125C67.2182 5.79167 67.5599 5.55833 67.8766 5.425C68.2099 5.29167 68.7016 5.225 69.3516 5.225H71.3516C72.0516 5.90833 72.6016 6.79167 73.0016 7.875C73.4016 8.95833 73.6016 10.15 73.6016 11.45C73.6016 14.2333 72.7682 16.4167 71.1016 18H68.7266C67.9099 18 67.2266 17.6917 66.6766 17.075L66.2266 18H63.5516V0.499999ZM66.8766 15.375H69.2766C69.8932 14.325 70.2016 13.05 70.2016 11.55C70.2016 10.05 69.8849 8.81667 69.2516 7.85H66.8766V15.375ZM81.1674 7.85H79.2924C79.0424 8.15 78.834 8.56667 78.6674 9.1C78.5174 9.63333 78.4424 10.15 78.4424 10.65H82.0174C82.0507 10.15 81.984 9.63333 81.8174 9.1C81.6507 8.55 81.434 8.13333 81.1674 7.85ZM84.5674 15.375V18H78.2174C77.0507 17.2167 76.2257 16.25 75.7424 15.1C75.2757 13.9333 75.0424 12.7583 75.0424 11.575C75.0424 8.84167 76.0757 6.725 78.1424 5.225H82.1924C83.3091 6.04167 84.0674 6.90833 84.4674 7.825C84.8674 8.74167 85.0674 9.66667 85.0674 10.6C85.0674 11.5333 84.9924 12.3333 84.8424 13H78.6174C78.6674 13.3833 78.809 13.825 79.0424 14.325C79.2924 14.8083 79.559 15.1583 79.8424 15.375H84.5674Z" fill="white"/>
</svg>
